<svg width="20" height="16" viewBox="0 0 20 16" fill="none" xmlns="http://www.w3.org/2000/svg">
<path d="M20 2.26471C19.2639 2.57353 18.4704 2.77647 17.6482 2.87353C18.4895 2.40588 19.1396 1.66471 19.4455 0.773529C18.652 1.21471 17.7725 1.52353 16.8451 1.7C16.0899 0.941177 15.0287 0.5 13.8241 0.5C11.5774 0.5 9.74187 2.19412 9.74187 4.28529C9.74187 4.58529 9.78012 4.87647 9.84704 5.15C6.4436 4.99118 3.413 3.48235 1.39579 1.19706C1.04207 1.75294 0.8413 2.40588 0.8413 3.09412C0.8413 4.40882 1.55832 5.57353 2.6673 6.23529C1.98853 6.23529 1.35755 6.05882 0.80306 5.79412V5.82059C0.80306 7.65588 2.21797 9.19118 4.09178 9.53529C3.49018 9.68724 2.8586 9.70839 2.24665 9.59706C2.50632 10.3492 3.01485 11.0074 3.70078 11.4791C4.38671 11.9507 5.21553 12.2121 6.07075 12.2265C4.62106 13.2857 2.82409 13.8582 0.975143 13.85C0.650096 13.85 0.325048 13.8324 0 13.7971C1.81644 14.8735 3.97706 15.5 6.29063 15.5C13.8241 15.5 17.9637 9.72941 17.9637 4.72647C17.9637 4.55882 17.9637 4.4 17.9541 4.23235C18.7572 3.70294 19.4455 3.03235 20 2.26471Z" fill="#FFFFF0"/>
</svg>
