<svg width="18" height="20" viewBox="0 0 18 20" fill="none" xmlns="http://www.w3.org/2000/svg">
<path d="M4.87752 0.32951C5.56919 0.58365 6.22719 0.934959 6.83474 1.37447C7.69276 1.13662 8.57502 1.01713 9.46063 1.01883C10.3752 1.01883 11.2576 1.1427 12.0847 1.37347C12.692 0.934387 13.3497 0.583417 14.041 0.32951C14.6829 0.0927452 15.5975 -0.290874 16.1409 0.361479C16.5094 0.805039 16.6015 1.5483 16.6669 2.11574C16.7405 2.74911 16.758 3.57429 16.5646 4.39348C17.3042 5.42945 17.75 6.66523 17.75 8.01189C17.75 10.0519 16.7313 11.8231 15.2236 13.0499C14.498 13.6328 13.6932 14.0899 12.8381 14.4046C13.0352 14.8941 13.1448 15.4355 13.1448 16.004V19.001C13.1448 19.2659 13.0478 19.52 12.875 19.7074C12.7023 19.8947 12.468 20 12.2238 20H6.6975C6.45323 20 6.21896 19.8947 6.04623 19.7074C5.8735 19.52 5.77646 19.2659 5.77646 19.001V18.011C4.89687 18.1279 4.15911 18.024 3.53188 17.7352C2.8761 17.4335 2.41926 16.966 2.07572 16.5185C1.74967 16.0949 1.39414 15.1398 0.880204 14.954C0.765419 14.9125 0.659287 14.847 0.567867 14.761C0.476447 14.6751 0.401529 14.5705 0.34739 14.4531C0.238053 14.2161 0.219993 13.9417 0.297184 13.6903C0.374375 13.4388 0.540494 13.2309 0.758996 13.1123C0.977498 12.9937 1.23048 12.9742 1.4623 13.0579C2.07572 13.2797 2.47545 13.7592 2.749 14.1448C3.1911 14.7642 3.5503 15.5734 4.25029 15.8961C4.53858 16.0289 4.96134 16.1159 5.62265 16.0179L5.77646 15.984C5.77822 15.4403 5.8826 14.9028 6.08317 14.4046C5.22806 14.0899 4.42328 13.6329 3.69767 13.0499C2.18992 11.8231 1.17125 10.0529 1.17125 8.01189C1.17125 6.66722 1.61612 5.43245 2.35387 4.39748C2.16045 3.57829 2.17703 2.75111 2.25071 2.11674L2.25532 2.07878C2.32255 1.49735 2.40084 0.813031 2.77663 0.361479C3.32004 -0.290874 4.23556 0.0937444 4.8766 0.33051L4.87752 0.32951Z" fill="#FFFFF0"/>
</svg>
