<svg width="20" height="18" viewBox="0 0 20 18" fill="none" xmlns="http://www.w3.org/2000/svg">
<path fill-rule="evenodd" clip-rule="evenodd" d="M17.9283 0.369723C18.1742 0.263715 18.4434 0.227153 18.7078 0.263843C18.9722 0.300534 19.2221 0.409135 19.4316 0.578342C19.6411 0.74755 19.8025 0.971179 19.899 1.22595C19.9955 1.48073 20.0235 1.75733 19.9802 2.02698L17.7234 16.0484C17.5044 17.4009 16.0556 18.1765 14.8446 17.5028C13.8316 16.9392 12.327 16.0708 10.9737 15.1647C10.297 14.7112 8.22427 13.2588 8.47901 12.2253C8.69793 11.3416 12.1807 8.02102 14.1709 6.04678C14.952 5.27116 14.5958 4.82372 13.6734 5.53717C11.3817 7.30858 7.70483 10.0024 6.48884 10.7607C5.41614 11.4293 4.8569 11.5434 4.1882 11.4293C2.96823 11.2214 1.83682 10.8993 0.913377 10.5069C-0.33446 9.9769 -0.27376 8.21976 0.912382 7.70812L17.9283 0.369723Z" fill="#FFFFF0"/>
</svg>
