<svg width="20" height="16" viewBox="0 0 20 16" fill="none" xmlns="http://www.w3.org/2000/svg">
<path d="M16.9225 1.74659C15.6558 1.16549 14.2844 0.743729 12.8557 0.500043C12.8432 0.499649 12.8308 0.501962 12.8192 0.50682C12.8077 0.511678 12.7974 0.518963 12.7891 0.528161C12.6176 0.837455 12.4176 1.24047 12.2843 1.54977C10.769 1.32483 9.22803 1.32483 7.71275 1.54977C7.57941 1.2311 7.37941 0.837455 7.19845 0.528161C7.18893 0.509416 7.16035 0.500043 7.13178 0.500043C5.70317 0.743729 4.34123 1.16549 3.065 1.74659C3.05548 1.74659 3.04595 1.75596 3.03643 1.76534C0.445883 5.57996 -0.268423 9.29149 0.0839681 12.9655C0.0839681 12.9843 0.0934922 13.003 0.11254 13.0124C1.82687 14.2496 3.47454 14.9994 5.10315 15.4961C5.13173 15.5055 5.1603 15.4961 5.16982 15.4774C5.55078 14.9619 5.89365 14.4183 6.1889 13.8465C6.20795 13.8091 6.1889 13.7716 6.1508 13.7622C5.60793 13.556 5.09363 13.3123 4.58885 13.0311C4.55076 13.0124 4.55076 12.9562 4.57933 12.928C4.68409 12.8531 4.78886 12.7687 4.89362 12.6937C4.91267 12.675 4.94124 12.675 4.96029 12.6844C8.23657 14.1558 11.77 14.1558 15.0082 12.6844C15.0272 12.675 15.0558 12.675 15.0749 12.6937C15.1796 12.7781 15.2844 12.8531 15.3891 12.9374C15.4272 12.9655 15.4272 13.0218 15.3796 13.0405C14.8844 13.3311 14.3605 13.5654 13.8177 13.7716C13.7796 13.7809 13.7701 13.8278 13.7796 13.8559C14.0844 14.4276 14.4272 14.9713 14.7987 15.4867C14.8272 15.4961 14.8558 15.5055 14.8844 15.4961C16.5225 14.9994 18.1702 14.2496 19.8845 13.0124C19.9036 13.003 19.9131 12.9843 19.9131 12.9655C20.3321 8.71977 19.2178 5.03636 16.9606 1.76534C16.9511 1.75596 16.9416 1.74659 16.9225 1.74659ZM6.68415 10.7255C5.70317 10.7255 4.8841 9.8351 4.8841 8.73851C4.8841 7.64192 5.68412 6.75153 6.68415 6.75153C7.6937 6.75153 8.49372 7.6513 8.4842 8.73851C8.4842 9.8351 7.68418 10.7255 6.68415 10.7255ZM13.3224 10.7255C12.3414 10.7255 11.5224 9.8351 11.5224 8.73851C11.5224 7.64192 12.3224 6.75153 13.3224 6.75153C14.332 6.75153 15.132 7.6513 15.1225 8.73851C15.1225 9.8351 14.332 10.7255 13.3224 10.7255Z" fill="#FFFFF0"/>
</svg>
