<svg width="24" height="25" viewBox="0 0 24 25" fill="none" xmlns="http://www.w3.org/2000/svg">
<path d="M7.81 22.5H16.19C19.83 22.5 22 20.33 22 16.69V8.32C22 4.67 19.83 2.5 16.19 2.5H7.82C4.18 2.5 2.01 4.67 2.01 8.31V16.69C2 20.33 4.17 22.5 7.81 22.5ZM6 11.75L16.19 11.75L13.18 8.74C12.89 8.45 12.89 7.97 13.18 7.68C13.33 7.53 13.52 7.46 13.71 7.46C13.9 7.46 14.09 7.53 14.24 7.68L18.53 11.97C18.67 12.11 18.75 12.3 18.75 12.5C18.75 12.7 18.67 12.89 18.53 13.03L14.24 17.32C13.95 17.61 13.47 17.61 13.18 17.32C12.89 17.03 12.89 16.55 13.18 16.26L16.19 13.25L6 13.25C5.59 13.25 5.25 12.91 5.25 12.5C5.25 12.09 5.59 11.75 6 11.75Z" fill="#F18500"/>
</svg>
