<svg width="23" height="24" viewBox="0 0 23 24" fill="none" xmlns="http://www.w3.org/2000/svg">
<path d="M22.2929 11.2929C23.0739 12.0739 23.0739 13.3403 22.2929 14.1213L13.1005 23.3137C12.3195 24.0948 11.0531 24.0948 10.2721 23.3137L11.6863 21.8995L21.5858 12C21.9763 11.6095 22.2929 11.2929 22.2929 11.2929ZM0.372583 12L11.6863 0.686292L0.372583 12ZM11.6863 0.686292L23 12L11.6863 0.686292ZM13.1005 23.3137C12.3195 24.0948 11.0531 24.0948 10.2721 23.3137L1.07969 14.1213C0.298642 13.3403 0.298641 12.0739 1.07969 11.2929C1.07969 11.2929 1.39627 11.6095 1.7868 12L11.6863 21.8995L13.1005 23.3137Z" fill="#F18500"/>
</svg>
