<svg width="23" height="24" viewBox="0 0 23 24" fill="none" xmlns="http://www.w3.org/2000/svg">
<path d="M0.707107 13.2071C-0.0739418 12.4261 -0.0739418 11.1597 0.707107 10.3787L9.89949 1.18629C10.6805 0.405242 11.9469 0.405243 12.7279 1.18629L11.3137 2.60051L1.41421 12.5C1.02369 12.8905 0.707107 13.2071 0.707107 13.2071ZM22.6274 12.5L11.3137 23.8137L22.6274 12.5ZM11.3137 23.8137L0 12.5L11.3137 23.8137ZM9.89949 1.18629C10.6805 0.405242 11.9469 0.405243 12.7279 1.18629L21.9203 10.3787C22.7014 11.1597 22.7014 12.4261 21.9203 13.2071C21.9203 13.2071 21.6037 12.8905 21.2132 12.5L11.3137 2.60051L9.89949 1.18629Z" fill="#F18500"/>
</svg>
