<svg width="20" height="21" viewBox="0 0 20 21" fill="none" xmlns="http://www.w3.org/2000/svg">
<path d="M14.19 0.5H5.81C2.17 0.5 0 2.67 0 6.31V14.68C0 18.33 2.17 20.5 5.81 20.5H14.18C17.82 20.5 19.99 18.33 19.99 14.69V6.31C20 2.67 17.83 0.5 14.19 0.5ZM16 11.25H5.81L8.82 14.26C9.11 14.55 9.11 15.03 8.82 15.32C8.67 15.47 8.48 15.54 8.29 15.54C8.1 15.54 7.91 15.47 7.76 15.32L3.47 11.03C3.33 10.89 3.25 10.7 3.25 10.5C3.25 10.3 3.33 10.11 3.47 9.97L7.76 5.68C8.05 5.39 8.53 5.39 8.82 5.68C9.11 5.97 9.11 6.45 8.82 6.74L5.81 9.75H16C16.41 9.75 16.75 10.09 16.75 10.5C16.75 10.91 16.41 11.25 16 11.25Z" fill="#F18500"/>
</svg>
