<svg width="22" height="22" viewBox="0 0 22 22" fill="none" xmlns="http://www.w3.org/2000/svg">
<path fill-rule="evenodd" clip-rule="evenodd" d="M8.16364 9.62744C8.09845 9.66747 8.04177 9.72 7.99684 9.78202C7.95191 9.84403 7.91961 9.91432 7.90178 9.98887C7.88395 10.0634 7.88095 10.1408 7.89295 10.2165C7.90495 10.2922 7.93171 10.3648 7.9717 10.4301C8.50622 11.3039 8.96048 12.1714 9.26293 12.9594C9.31831 13.1039 9.42863 13.2203 9.56961 13.2831C9.71059 13.346 9.8707 13.3501 10.0147 13.2946C10.1587 13.239 10.2748 13.1284 10.3375 12.987C10.4001 12.8456 10.4042 12.685 10.3488 12.5406C10.0127 11.6633 9.51943 10.7294 8.96339 9.81994C8.88278 9.68806 8.75324 9.5937 8.60326 9.5576C8.45328 9.5215 8.29515 9.54662 8.16364 9.62744ZM14.2208 9.07094C14.3453 9.16225 14.4285 9.29938 14.4521 9.45219C14.4758 9.605 14.438 9.76099 14.347 9.88585C13.6741 10.8093 13.0814 12.0442 12.6643 12.9869C12.6333 13.0569 12.5889 13.1201 12.5335 13.1729C12.4781 13.2256 12.413 13.267 12.3417 13.2945C12.2704 13.322 12.1944 13.3352 12.118 13.3332C12.0416 13.3313 11.9664 13.3143 11.8966 13.2832C11.8268 13.2521 11.7638 13.2075 11.7111 13.152C11.6585 13.0964 11.6173 13.0311 11.5898 12.9596C11.5624 12.8881 11.5493 12.8118 11.5512 12.7352C11.5531 12.6587 11.5701 12.5832 11.6011 12.5132C12.0222 11.5624 12.6562 10.2289 13.4083 9.19752C13.4993 9.07271 13.636 8.98927 13.7884 8.96553C13.9408 8.9418 14.0963 8.97971 14.2208 9.07094Z" fill="#FEF3E5"/>
<path fill-rule="evenodd" clip-rule="evenodd" d="M12.854 4.02158C14.215 2.45941 21.5 0.5 21.5 0.5C21.5 0.5 20.2617 8.31374 19.1723 9.56324C18.3609 10.4942 15.7755 9.91265 14.5087 9.55507C15.4556 8.09849 16.5532 6.67574 17.5181 5.54641C17.6166 5.42873 17.6648 5.27686 17.6522 5.12376C17.6397 4.97066 17.5675 4.8287 17.4512 4.72869C17.3349 4.62869 17.184 4.57871 17.0313 4.58961C16.8785 4.60051 16.7362 4.67141 16.6352 4.78691C15.6621 5.92558 14.5343 7.38274 13.5467 8.89766C12.9918 7.86166 11.7768 5.25708 12.854 4.02158ZM3.40818 14.5H0.5V21.5H3.40818V20.3082C4.00145 20.2837 4.8774 20.2522 5.18043 20.2645C6.21982 20.3071 6.99514 20.5556 7.78035 20.807C8.51205 21.0409 9.25131 21.2777 10.2186 21.3518C10.4617 21.3705 10.6984 21.3944 10.9282 21.4171C11.7558 21.5011 12.4904 21.5758 13.0977 21.3518C13.8724 21.066 18.301 18.8919 18.8547 18.3196C19.4084 17.748 19.1316 16.2033 17.4152 16.4891C16.5683 16.6303 15.5871 17.0363 14.6966 17.4044C13.7828 17.7818 12.9651 18.1201 12.4881 18.091C11.547 18.0338 9.05646 17.5765 9.05646 17.5765L11.9164 17.6115C11.9164 17.6115 12.3206 17.6325 12.8761 17.2329C13.4315 16.8333 13.9277 15.6882 13.0971 15.6882C12.2671 15.6882 11.3813 15.4024 11.3813 15.4024L7.83793 14.6015C7.83793 14.6015 6.61998 14.3728 6.1221 14.6015C5.71147 14.7899 4.00029 15.4047 3.40818 15.6165V14.5ZM2.17395 2.64083C2.17395 2.64083 8.18517 4.25783 9.30889 5.54641C10.1773 6.54216 9.24142 8.61591 8.7703 9.50841C8.15271 8.53598 7.48606 7.59579 6.77295 6.69149C6.72564 6.63136 6.66697 6.58116 6.60031 6.54376C6.53365 6.50637 6.46029 6.48251 6.38444 6.47354C6.30858 6.46458 6.2317 6.47068 6.1582 6.49152C6.0847 6.51235 6.016 6.54749 5.95604 6.59495C5.89609 6.64241 5.84603 6.70124 5.80875 6.7681C5.77146 6.83496 5.74767 6.90852 5.73873 6.9846C5.72979 7.06068 5.73588 7.13778 5.75665 7.2115C5.77742 7.28521 5.81247 7.35411 5.85978 7.41424C6.55293 8.29321 7.20056 9.20733 7.80013 10.153C6.71363 10.4482 4.7349 10.8547 4.0951 10.1203C3.19589 9.08899 2.17395 2.64025 2.17395 2.64025V2.64083Z" fill="#FEF3E5"/>
</svg>
