<svg width="19" height="18" viewBox="0 0 19 18" fill="none" xmlns="http://www.w3.org/2000/svg">
<path d="M4.16667 8.16667H10.8333V9.83334H4.16667V12.3333L0 9.00001L4.16667 5.66667V8.16667ZM3.33333 14H5.59C6.55224 14.8486 7.73891 15.4016 9.00761 15.5925C10.2763 15.7834 11.5731 15.6041 12.7425 15.0763C13.9119 14.5484 14.9041 13.6943 15.6001 12.6165C16.296 11.5387 16.6663 10.283 16.6663 9.00001C16.6663 7.71702 16.296 6.46129 15.6001 5.38349C14.9041 4.3057 13.9119 3.45162 12.7425 2.92376C11.5731 2.39589 10.2763 2.21665 9.00761 2.40756C7.73891 2.59846 6.55224 3.15139 5.59 4.00001H3.33333C4.10888 2.96432 5.11528 2.12377 6.27256 1.54513C7.42984 0.966485 8.70612 0.665702 10 0.666674C14.6025 0.666674 18.3333 4.39751 18.3333 9.00001C18.3333 13.6025 14.6025 17.3333 10 17.3333C8.70612 17.3343 7.42984 17.0335 6.27256 16.4549C5.11528 15.8762 4.10888 15.0357 3.33333 14Z" fill="#D61F1F"/>
</svg>
